<?xml version="1.0" standalone="no"?>
<!DOCTYPE svg PUBLIC "-//W3C//DTD SVG 20010904//EN"
 "http://www.w3.org/TR/2001/REC-SVG-20010904/DTD/svg10.dtd">
<svg version="1.0" xmlns="http://www.w3.org/2000/svg"
 width="16.000000pt" height="16.000000pt" viewBox="0 0 16.000000 16.000000"
 preserveAspectRatio="xMidYMid meet">

<g transform="translate(0.000000,16.000000) scale(0.100000,-0.100000)"
fill="#000000" stroke="none">
<path d="M0 110 c0 -27 2 -50 5 -50 3 0 21 16 40 36 l35 36 35 -36 c19 -20 37
-36 40 -36 3 0 5 23 5 50 l0 50 -80 0 -80 0 0 -50z"/>
<path d="M70 100 c0 -14 -46 -60 -60 -60 -5 0 -10 -9 -10 -20 0 -18 7 -20 80
-20 73 0 80 2 80 20 0 11 -5 20 -10 20 -6 0 -22 11 -35 25 -14 13 -25 29 -25
35 0 5 -4 10 -10 10 -5 0 -10 -5 -10 -10z m20 -50 c0 -5 -4 -10 -10 -10 -5 0
-10 5 -10 10 0 6 5 10 10 10 6 0 10 -4 10 -10z"/>
</g>
</svg>
